<svg width="150" height="46" viewBox="0 0 150 46" fill="none" xmlns="http://www.w3.org/2000/svg">
<path d="M0 18.9768L21.9007 9.7464L5.33185 21.2127L21.9007 32.6791L0 23.4487V18.9768Z" fill="#FF3300"/>
<path d="M52.1141 11.409C52.1141 13.2054 51.5217 14.8871 50.3368 16.4542C49.1902 18.0213 47.6422 19.3399 45.693 20.4101C48.292 21.251 50.2031 22.5887 51.4261 24.4233C52.6874 26.2579 53.3181 28.169 53.3181 30.1565C53.3181 31.4942 53.0505 32.8129 52.5154 34.1124C51.9803 35.3737 51.1586 36.5203 50.0502 37.5523C48.98 38.5843 47.604 39.4251 45.9223 40.0749C44.2788 40.6864 42.3486 40.9922 40.1318 40.9922C38.8323 40.9922 37.5518 40.8393 36.2905 40.5335C35.0675 40.266 33.9208 39.8265 32.8506 39.2149C31.8187 38.6034 30.9014 37.8198 30.0987 36.8643C29.2961 35.9088 28.6845 34.743 28.2641 33.3671L33.0226 31.7618C33.252 32.5262 33.596 33.2142 34.0546 33.8257C34.5515 34.3991 35.1057 34.8959 35.7172 35.3164C36.367 35.6986 37.055 36.0043 37.7812 36.2337C38.5456 36.4248 39.2909 36.5203 40.0171 36.5203C42.3868 36.5203 44.2405 36.0043 45.5783 34.9724C46.916 33.9022 47.5849 32.3924 47.5849 30.4432C47.5849 29.4876 47.4129 28.5894 47.0689 27.7486C46.7631 26.8695 46.2663 26.1051 45.5783 25.4553C44.8903 24.7673 43.9921 24.2322 42.8837 23.85C41.7753 23.4678 40.4184 23.2767 38.8131 23.2767C37.6665 23.2767 36.4434 23.3914 35.1439 23.6207L40.4758 21.5L35.8319 19.6648C38.0487 19.6266 39.8451 19.3399 41.2211 18.8048C42.6353 18.2315 43.7437 17.5626 44.5463 16.7982C45.349 15.9956 45.9032 15.1356 46.2089 14.2183C46.5147 13.301 46.6676 12.441 46.6676 11.6383C46.6676 9.99484 46.0943 8.61887 44.9476 7.51046C43.801 6.40205 42.3104 5.84784 40.4758 5.84784C38.7558 5.84784 37.3034 6.36382 36.1186 7.3958C34.9337 8.42777 34.0737 10.2051 33.5386 12.7276L28.6081 11.5237C29.2579 8.46599 30.5956 6.01983 32.6213 4.18522C34.647 2.3506 37.1314 1.4333 40.0744 1.4333C42.4059 1.4333 44.3361 1.73906 45.8649 2.3506C47.432 2.92392 48.6742 3.68834 49.5915 4.64387C50.5088 5.5994 51.1586 6.66959 51.5408 7.85445C51.923 9.03931 52.1141 10.2242 52.1141 11.409Z" fill="#FF3300"/>
<path d="M71 41.5L81.6821 40.9922V45.0054H57.0294L71 41.5Z" fill="#FF3300"/>
<path d="M114.976 26.6019C114.976 29.0863 114.613 31.2267 113.887 33.0231C113.161 34.8195 112.167 36.3101 110.906 37.495C109.644 38.6798 108.154 39.5589 106.434 40.1322C104.714 40.7055 102.86 40.9922 100.873 40.9922C98.8468 40.9922 96.974 40.7055 95.254 40.1322C93.5723 39.5589 92.1008 38.6798 90.8395 37.495C89.5782 36.3101 88.5844 34.8195 87.8582 33.0231C87.1702 31.2267 86.8262 29.0863 86.8262 26.6019V0L87.8582 20.0088L92.3301 26.6019C92.3301 28.4365 92.5403 30.0036 92.9607 31.3031C93.3812 32.5644 93.9545 33.5964 94.6807 34.399C95.4451 35.2017 96.3433 35.7941 97.3753 36.1763C98.4455 36.5203 99.6112 36.6923 100.873 36.6923C102.172 36.6923 103.338 36.5203 104.37 36.1763C105.44 35.7941 106.338 35.2017 107.064 34.399C107.829 33.5964 108.421 32.5644 108.842 31.3031C109.262 30.0036 109.472 28.4365 109.472 26.6019L100 7.85445L114.976 0V26.6019Z" fill="#FF3300"/>
<path d="M136.298 0C138.591 0 140.598 0.32488 142.318 0.974641C144.038 1.58618 145.452 2.46527 146.56 3.6119C147.707 4.72031 148.567 6.05805 149.14 7.62512C149.713 9.15397 150 10.8166 150 12.613C150 14.4476 149.713 16.1293 149.14 17.6582C148.567 19.187 147.707 20.5248 146.56 21.6714C145.452 22.7798 144.038 23.6398 142.318 24.2513C140.598 24.8629 138.591 25.1686 136.298 25.1686H130.221V40.1322H124.717V4L136.298 0ZM130.221 4.47188V20.6968H136.298C137.941 20.6968 139.298 20.4674 140.368 20.0088C141.438 19.5119 142.279 18.8813 142.891 18.1168C143.541 17.3524 143.999 16.4924 144.267 15.5369C144.534 14.5814 144.668 13.6067 144.668 12.613C144.668 11.6575 144.534 10.7019 144.267 9.7464C143.999 8.75265 143.541 7.87356 142.891 7.10914C142.279 6.30649 141.438 5.67584 140.368 5.21719C139.298 4.72031 137.941 4.47188 136.298 4.47188H130.221Z" fill="#FF3300"/>
</svg>
