<?xml version="1.0" encoding="utf-8"?><svg viewBox="0 0 90 90" xmlns="http://www.w3.org/2000/svg" xmlns:xlink="http://www.w3.org/1999/xlink"><style>:root>svg{display:none}:root>svg:target{display:block}</style><svg viewBox="0 0 68 90" id="bulb" xmlns="http://www.w3.org/2000/svg"><path d="M20.726 77.25c0 1.107-.613 4.794 0 5.717l3.026 4.516c.927 1.384 3.031 2.51 4.704 2.51h10.888c1.666 0 3.771-1.125 4.698-2.51l3.016-4.514c.519-.78.944-2.175.944-3.112l.023-6.89h-28.25l.95 4.283zM33.794.002C15.792.057 1.875 14.586 1.875 30.782c0 7.8 4.587 14.026 9.375 19.468 2.919 3.312 6.742 11.12 8.486 16.96.006.044.017.09.022.138h28.286c.005-.047.016-.091.022-.138 1.743-5.84 6.301-12.763 9.22-16.075 4.793-5.291 8.339-13.172 8.339-21.135 0-16.961-14.616-30.05-31.831-29.998zm.106 16.875c-7.792 0-14.125 6.309-14.125 13.904 0 1.703-1.271 2.969-2.825 2.969a2.827 2.827 0 01-2.825-2.813c0-10.856 8.872-19.529 19.775-19.529a2.817 2.817 0 012.825 2.813c0 1.554-1.271 2.656-2.825 2.656z"/></svg><svg viewBox="0 0 90 90" id="clock" xmlns="http://www.w3.org/2000/svg"><path d="M45 90C20.145 90 0 69.856 0 45 0 20.145 20.145 0 45 0c24.856 0 45 20.145 45 45 0 24.856-20.144 45-45 45zm-4.219-45c0 1.406.703 2.725 1.881 3.357L58.91 58.5c1.934 1.441 3.054 1.665 4.091.628 1.037-1.037-2.455-6.355-3.273-7.173-.818-.819-10.508-9.205-10.508-9.205V21.094c0-2.338-1.881-4.219-4.377-4.219-2.18 0-4.219 1.88-4.219 4.219v12.042L40.781 45z"/></svg><svg viewBox="0 0 90 90" id="like" xmlns="http://www.w3.org/2000/svg"><path d="M22.5 78.592V39.217c0-3.106-2.519-5.467-5.625-5.467H5.625C2.519 33.75 0 36.269 0 39.217v39.217C0 81.54 2.519 83.9 5.625 83.9h11.25c3.111.317 5.625-2.056 5.625-5.308zm67.5-39.2a8.434 8.434 0 00-8.438-8.433H55.81c4.003-6.664 6.069-14.218 6.069-16.879-.004-4.145-3.256-8.455-8.705-8.455-11.097 0-4.634 13.386-19.02 24.89l-2.865 2.286c-2.074 1.67-3.129 4.113-3.146 6.574l1.482 26.719c0 2.654-.25 6.562 1.875 8.154l6.001 4.498a28.046 28.046 0 0016.868 5.629h10.319a8.433 8.433 0 008.437-8.434c0-.639-.085-1.256-.219-1.855 3.383-1.102 5.844-4.23 5.844-7.992 0-1.608-.72-3.691-1.5-4.969 3.91-.724 7.125-3.557 7.125-7.67 0-2.197-.86-4.18-2.236-5.681C86.52 47.478 90 43.857 90 39.393z"/></svg><svg viewBox="0 0 90 90" id="sms" xmlns="http://www.w3.org/2000/svg"><path d="M45 5.625C20.145 5.625.002 21.99.002 42.188c0 8.716 3.76 16.699 10.018 22.974C7.823 74.02.474 81.914.386 82.002a1.406 1.406 0 00-.265 1.53c.072.527.725.843 1.285.843 11.656 0 20.39-5.59 24.715-9.037A53.57 53.57 0 0045 78.75c24.856 0 45-16.365 45-36.563C90 21.99 69.856 5.626 45 5.626zm-15.592 42.17c-.597 3.375-3.691 5.642-8.12 5.642-.71 0-1.451-.054-2.214-.175-1.303-.211-2.76-.739-4.045-1.213-1.46-.527-2.471-2.226-1.95-3.686.523-1.461 1.862-2.466 3.335-1.798 1.227.439 2.555.957 3.67 1.131 2.012.31 3.646-.06 3.787-.868.185-1.04-1.905-1.476-4.317-2.169-2.13-.62-7.784-2.28-6.79-8.086.713-4.11 4.8-6.312 10.195-5.465 1.038.16 2.186.5 3.268.873a2.815 2.815 0 011.74 3.576 2.786 2.786 0 01-3.569 1.744c-.763-.264-1.57-.517-2.3-.632-1.973-.291-4.711.075-4.848.866-.178 1 2.719 1.4 4.617 1.946 2.988.86 8.56 2.443 7.541 8.314zm26.842 2.83a2.81 2.81 0 01-2.813 2.813 2.816 2.816 0 01-2.812-2.813v-8.438l-3.373 4.499c-1.066 1.417-3.437 1.417-4.504 0l-3.373-4.498v8.437a2.81 2.81 0 01-2.813 2.813c-1.554 0-2.062-3.891-2.062-5.438l-.75-14.25c0-1.209.775-2.127 1.923-2.668a2.838 2.838 0 013.141.982L45 40.307l6.186-8.25c.73-.972 2.004-1.345 3.141-.982 1.15.39.798 4.285.798 5.498l1.125 14.052zm20.97-2.83c-.597 3.375-3.69 5.642-8.12 5.642-.709 0-1.45-.054-2.213-.175-1.45-.22-2.911-.747-4.198-1.214-1.461-.528-2.472-2.226-1.95-3.686.523-1.461 1.862-2.314 3.335-1.792 1.227.44 2.554.958 3.67 1.132 2.011.302 3.653-.066 3.79-.868.185-1.04-1.905-1.476-4.317-2.169-2.13-.62-7.47-2.859-6.477-8.665.708-4.11 4.477-5.733 9.882-4.886 1.038.16 2.187.5 3.268.873a2.815 2.815 0 011.741 3.576 2.806 2.806 0 01-3.575 1.741c-.764-.264-1.572-.516-2.301-.632-1.967-.29-3.643.072-3.78.863-.022.996 1.806 1.4 3.705 1.946 2.988.86 8.56 2.443 7.54 8.314z"/></svg><svg viewBox="0 0 59 60" id="telegram" xmlns="http://www.w3.org/2000/svg"><path d="M29.5.938C13.484.938.5 13.948.5 30c0 16.05 12.984 29.063 29 29.063S58.5 46.05 58.5 30C58.5 13.95 45.516.937 29.5.937zm13.442 19.764c-.436 4.596-2.325 15.748-3.286 20.895-.406 2.178-1.207 2.908-1.982 2.98-1.684.155-2.963-1.116-4.594-2.188-2.552-1.676-3.994-2.72-6.472-4.356-2.863-1.891-1.007-2.93.625-4.63.427-.444 7.847-7.207 7.99-7.82.019-.078.036-.364-.134-.515-.17-.15-.42-.1-.6-.058-.257.058-4.334 2.759-12.233 8.102-1.157.797-2.206 1.185-3.145 1.164-1.035-.022-3.027-.586-4.508-1.069-1.816-.591-3.26-.904-3.134-1.909.066-.523.785-1.058 2.158-1.605 8.454-3.691 14.091-6.125 16.912-7.3 8.053-3.358 9.727-3.941 10.818-3.96.24-.005.776.055 1.123.337.232.202.379.483.413.788.06.378.075.762.049 1.144z"/></svg><svg viewBox="0 0 58 58" id="vk" xmlns="http://www.w3.org/2000/svg"><path d="M4.507 4.184C.5 8.244.5 14.778.5 27.845v2.31c0 13.067 0 19.601 4.007 23.66 4.006 4.06 10.456 4.06 23.353 4.06h2.28c12.897 0 19.347 0 23.353-4.06C57.5 49.757 57.5 43.223 57.5 30.156v-2.31c0-13.067 0-19.601-4.007-23.66C49.487.124 43.037.124 30.14.124h-2.28c-12.897 0-19.347 0-23.353 4.06zm5.612 13.507h6.507c.214 11.02 5.011 15.688 8.811 16.65v-16.65h6.128v9.504c3.753-.409 7.695-4.74 9.025-9.504h6.127c-.5 2.47-1.5 4.81-2.934 6.872a18.197 18.197 0 01-5.402 5.11 18.79 18.79 0 016.158 4.967 19.088 19.088 0 013.603 7.09h-6.745a11.898 11.898 0 00-3.635-5.8 11.653 11.653 0 00-6.197-2.791v8.59h-.736c-12.992 0-20.402-9.023-20.71-24.038z"/></svg><svg viewBox="0 0 57 56" id="whatsapp" xmlns="http://www.w3.org/2000/svg"><path d="M48.112 8.137C42.875 2.887 35.9 0 28.487 0 13.188 0 .738 12.45.738 27.75a27.78 27.78 0 003.7 13.875L.5 56l14.713-3.862a27.666 27.666 0 0013.262 3.375h.012c15.288 0 28.013-12.45 28.013-27.75 0-7.413-3.15-14.376-8.388-19.626zm-19.625 42.7c-4.15 0-8.212-1.112-11.75-3.212l-.837-.5-8.725 2.288L9.5 40.9l-.55-.875A22.989 22.989 0 015.425 27.75c0-12.713 10.35-23.063 23.075-23.063 6.163 0 11.95 2.4 16.3 6.763 4.35 4.363 7.025 10.15 7.013 16.313 0 12.724-10.613 23.074-23.326 23.074zm12.65-17.275c-.687-.35-4.1-2.024-4.737-2.25-.637-.237-1.1-.35-1.563.35-.462.7-1.787 2.25-2.2 2.726-.4.462-.812.525-1.5.175-4.075-2.038-6.75-3.638-9.437-8.25-.712-1.226.713-1.138 2.038-3.788.224-.462.112-.862-.063-1.212s-1.563-3.763-2.137-5.15c-.563-1.35-1.138-1.163-1.563-1.188-.4-.025-.863-.025-1.325-.025-.462 0-1.212.175-1.85.863-.637.7-2.425 2.374-2.425 5.787 0 3.412 2.488 6.712 2.825 7.175.35.463 4.887 7.462 11.85 10.475 4.4 1.9 6.125 2.063 8.325 1.737 1.337-.2 4.1-1.675 4.675-3.3.575-1.624.575-3.012.4-3.3-.163-.312-.625-.487-1.313-.825z"/></svg></svg>