<svg width="68" height="90" viewBox="0 0 68 90" fill="none" xmlns="http://www.w3.org/2000/svg">
<path d="M20.7256 77.25C20.7256 78.3569 20.1132 82.0442 20.7256 82.967L23.7518 87.4828C24.6788 88.8671 26.7834 89.993 28.4555 89.993H39.3441C41.0105 89.993 43.1155 88.8678 44.0424 87.4828L47.0581 82.9688C47.5768 82.1887 48.0023 80.7943 48.0023 79.8574L48.025 72.9668H19.775L20.7256 77.25ZM33.794 0.00232227C15.7917 0.0572539 1.875 14.5863 1.875 30.7811C1.875 38.5822 6.46163 44.8078 11.25 50.25C14.1686 53.5617 17.9917 61.3705 19.7361 67.21C19.7416 67.2539 19.7527 67.3008 19.7582 67.3475H48.0435C48.049 67.3008 48.0601 67.2567 48.0656 67.21C49.8091 61.3705 54.3671 54.4465 57.2857 51.1348C62.0793 45.8438 65.625 37.9629 65.625 30C65.625 13.0388 51.0089 -0.0498672 33.794 0.00232227ZM33.9 16.8768C26.1082 16.8768 19.775 23.1856 19.775 30.7811C19.775 32.4844 18.5037 33.75 16.95 33.75C15.3962 33.75 14.125 32.4844 14.125 30.9375C14.125 20.0813 22.9972 11.4082 33.9 11.4082C35.4615 11.4082 36.725 12.6666 36.725 14.2207C36.725 15.7748 35.4537 16.8768 33.9 16.8768Z" fill="#FF3300"/>
</svg>
