<svg width="90" height="90" viewBox="0 0 90 90" fill="none" xmlns="http://www.w3.org/2000/svg">
<path d="M45 90C20.1445 90 0 69.8555 0 45C0 20.1445 20.1445 0 45 0C69.8555 0 90 20.1445 90 45C90 69.8555 69.8555 90 45 90ZM40.7812 45C40.7812 46.4062 41.4844 47.7246 42.6621 48.3574L58.9091 58.5C60.8427 59.9414 61.9629 60.1651 63 59.128C64.0371 58.0909 60.5455 52.7727 59.7273 51.9545C58.9091 51.1364 49.2188 42.75 49.2188 42.75V21.0938C49.2188 18.7559 47.3379 16.875 44.8418 16.875C42.6621 16.875 40.623 18.7559 40.623 21.0938V33.1364L40.7812 45Z" fill="#FF3300"/>
</svg>
