<svg width="90" height="90" viewBox="0 0 90 90" fill="none" xmlns="http://www.w3.org/2000/svg">
<path d="M22.5 78.5918V58.5V39.2168C22.5 36.1107 19.9811 33.75 16.875 33.75H5.625C2.51895 33.75 0 36.2689 0 39.2168V78.4336C0 81.5396 2.51895 83.9004 5.625 83.9004H16.875C19.9863 84.2168 22.5 81.8438 22.5 78.5918ZM90 39.3926C90 34.7344 86.2242 30.9586 81.5625 30.9586H55.8105C59.8131 24.2947 61.8785 16.7414 61.8785 14.0801C61.875 9.93516 58.623 5.625 53.1738 5.625C42.0768 5.625 48.5402 19.0107 34.1543 30.5156L31.2891 32.8008C29.2148 34.4707 28.1602 36.9141 28.1426 39.375L29.625 66.0938C29.625 68.748 29.3753 72.6557 31.5 74.2482L37.5012 78.7465C42.3633 82.4062 48.2871 84.375 54.3691 84.375H64.6875C69.3492 84.375 73.125 80.601 73.125 75.941C73.125 75.302 73.0405 74.6854 72.906 74.0865C76.2891 72.9844 78.75 69.8555 78.75 66.0938C78.75 64.4857 78.0308 62.4029 77.25 61.125C81.1592 60.4008 84.375 57.5684 84.375 53.4551C84.375 51.2578 83.5149 49.275 82.1391 47.7738C86.5195 47.4785 90 43.8574 90 39.3926Z" fill="#FF3300"/>
</svg>
