<svg width="90" height="90" viewBox="0 0 90 90" fill="none" xmlns="http://www.w3.org/2000/svg">
<path d="M45 5.625C20.1446 5.625 0.00244141 21.9902 0.00244141 42.1875C0.00244141 50.9045 3.7624 58.8867 10.0202 65.1621C7.82295 74.0197 0.473535 81.9141 0.385645 82.002C3.31849e-05 82.4062 -0.104346 83.0039 0.120883 83.5312C0.193393 84.0586 0.846068 84.375 1.40628 84.375C13.0623 84.375 21.7969 78.7852 26.1211 75.3381C31.8692 77.502 38.25 78.75 45 78.75C69.8555 78.75 90 62.3848 90 42.1875C90 21.9902 69.8555 5.625 45 5.625ZM29.4082 47.7949C28.8106 51.1699 25.7168 53.4375 21.2871 53.4375C20.5786 53.4375 19.8369 53.3826 19.0741 53.2617C17.7715 53.0508 16.3143 52.5234 15.0293 52.0488C13.5682 51.5215 12.5578 49.8234 13.0799 48.3627C13.602 46.902 14.9414 45.8965 16.4145 46.5645C17.6413 47.0036 18.9686 47.5223 20.0848 47.6961C22.0957 48.0059 23.7305 47.6367 23.8711 46.8281C24.0562 45.7889 21.9657 45.3523 19.5539 44.659C17.4235 44.0383 11.7703 42.3791 12.7635 36.573C13.4775 32.4633 17.5641 30.2607 22.9588 31.108C23.997 31.2673 25.1455 31.6079 26.2266 31.9815C27.6933 32.4868 28.4731 34.0908 27.9679 35.5569C27.4746 37.0371 25.875 37.8105 24.3985 37.3008C23.6349 37.0371 22.8273 36.7843 22.0975 36.669C20.1252 36.3779 17.387 36.7438 17.2499 37.5347C17.0723 38.5346 19.9688 38.9355 21.8672 39.4805C24.8555 40.3418 30.4278 41.9238 29.4082 47.7949ZM56.25 50.625C56.25 52.1796 54.9921 53.4375 53.4375 53.4375C51.8829 53.4375 50.625 52.1719 50.625 50.625V42.1875L47.2518 46.6857C46.1862 48.1029 43.8153 48.1029 42.7483 46.6857L39.375 42.1875V50.625C39.375 52.1796 38.1171 53.4375 36.5625 53.4375C35.0079 53.4375 34.4999 49.5469 34.4999 48L33.75 33.75C33.75 32.5415 34.5245 31.623 35.6731 31.0816C36.8157 30.7136 38.083 31.0919 38.8143 32.0643L45 40.3066L51.1858 32.0572C51.9163 31.085 53.1897 30.7121 54.327 31.0746C55.4766 31.4648 55.1249 35.3602 55.1249 36.573L56.25 50.625ZM77.2207 47.7949C76.6231 51.1699 73.5293 53.4375 69.0996 53.4375C68.3911 53.4375 67.6495 53.3826 66.8866 53.2617C65.4364 53.042 63.9756 52.5146 62.6889 52.0478C61.2278 51.5204 60.2174 49.8224 60.7395 48.3616C61.2616 46.9009 62.601 46.0484 64.0741 46.5704C65.3008 47.0095 66.6282 47.5283 67.7444 47.7021C69.7553 48.0043 71.3971 47.6362 71.5342 46.8341C71.7193 45.7949 69.6287 45.3582 67.217 44.665C65.0866 44.0443 59.7463 41.8061 60.7395 36C61.4481 31.8902 65.2166 30.2667 70.6219 31.114C71.6601 31.2733 72.8086 31.6139 73.8897 31.9874C75.3564 32.4928 76.1362 34.0968 75.631 35.5628C75.1256 37.0296 73.5321 37.8146 72.0556 37.3041C71.292 37.0404 70.4844 36.7877 69.7546 36.6724C67.7876 36.3813 66.1124 36.7438 65.9753 37.5347C65.9532 38.5312 67.7813 38.9355 69.6797 39.4805C72.668 40.3418 78.2403 41.9238 77.2207 47.7949Z" fill="#FF3300"/>
</svg>
