<svg width="59" height="60" viewBox="0 0 59 60" fill="none" xmlns="http://www.w3.org/2000/svg">
<path d="M29.5 0.9375C13.4837 0.9375 0.5 13.9492 0.5 30C0.5 46.0508 13.4837 59.0625 29.5 59.0625C45.5163 59.0625 58.5 46.0508 58.5 30C58.5 13.9492 45.5163 0.9375 29.5 0.9375ZM42.942 20.7023C42.5056 25.2979 40.6172 36.4498 39.6561 41.5969C39.2496 43.7747 38.4491 44.505 37.6743 44.5764C35.9904 44.7318 34.7113 43.4611 33.0802 42.3895C30.5279 40.7128 29.0859 39.669 26.6083 38.0329C23.7451 36.142 25.6013 35.1032 27.233 33.4039C27.66 32.9595 35.0802 26.1957 35.2238 25.5821C35.2416 25.5054 35.2588 25.2189 35.0888 25.0684C34.9188 24.9179 34.669 24.9689 34.4883 25.0098C34.2324 25.0681 30.155 27.7689 22.256 33.1124C21.0987 33.9088 20.0504 34.2968 19.1111 34.2765C18.0756 34.2541 16.0839 33.6899 14.6031 33.2074C12.787 32.6159 11.3435 32.3031 11.4692 31.2983C11.5347 30.7749 12.2539 30.2397 13.6267 29.6929C22.0808 26.0016 27.7182 23.568 30.5389 22.3921C38.5924 19.035 40.2659 18.4519 41.3567 18.4324C41.5966 18.4284 42.133 18.488 42.4804 18.7705C42.7115 18.9718 42.8588 19.2526 42.8932 19.5575C42.9521 19.9361 42.9684 20.3201 42.942 20.7023Z" fill="#C6C6C6"/>
</svg>
