<svg width="58" height="58" viewBox="0 0 58 58" fill="none" xmlns="http://www.w3.org/2000/svg">
<path d="M4.50663 4.18435C0.5 8.24368 0.5 14.7779 0.5 27.845V30.155C0.5 43.2221 0.5 49.7564 4.50663 53.8156C8.51325 57.875 14.9626 57.875 27.86 57.875H30.14C43.0374 57.875 49.4868 57.875 53.4933 53.8156C57.5 49.7564 57.5 43.2221 57.5 30.155V27.845C57.5 14.7779 57.5 8.24368 53.4933 4.18435C49.4868 0.125 43.0374 0.125 30.14 0.125H27.86C14.9626 0.125 8.51325 0.125 4.50663 4.18435ZM10.1188 17.6907H16.6263C16.84 28.7112 21.6375 33.3793 25.4375 34.3419V17.6907H31.565V27.1953C35.3175 26.7863 39.26 22.455 40.59 17.6907H46.7175C46.2162 20.1615 45.217 22.5009 43.7826 24.5629C42.3483 26.6248 40.5095 28.3646 38.3812 29.6738C40.7575 30.869 42.8565 32.5617 44.5391 34.6398C46.2218 36.718 47.4499 39.1344 48.1425 41.7291H41.3975C40.776 39.4752 39.5112 37.4575 37.7618 35.9292C36.0127 34.401 33.8568 33.4302 31.565 33.1388V41.7291H30.8287C17.8375 41.7291 10.4275 32.7057 10.1188 17.6907Z" fill="#C6C6C6"/>
</svg>
