<svg width="57" height="56" viewBox="0 0 57 56" fill="none" xmlns="http://www.w3.org/2000/svg">
<path d="M48.1125 8.1375C42.875 2.8875 35.9 0 28.4875 0C13.1875 0 0.7375 12.45 0.7375 27.75C0.7375 32.6375 2.0125 37.4125 4.4375 41.625L0.5 56L15.2125 52.1375C19.2625 54.35 23.825 55.5125 28.475 55.5125H28.4875C43.775 55.5125 56.5 43.0625 56.5 27.7625C56.5 20.35 53.35 13.3875 48.1125 8.1375ZM28.4875 50.8375C24.3375 50.8375 20.275 49.725 16.7375 47.625L15.9 47.125L7.175 49.4125L9.5 40.9L8.95 40.025C6.6375 36.35 5.425 32.1125 5.425 27.75C5.425 15.0375 15.775 4.6875 28.5 4.6875C34.6625 4.6875 40.45 7.0875 44.8 11.45C49.15 15.8125 51.825 21.6 51.8125 27.7625C51.8125 40.4875 41.2 50.8375 28.4875 50.8375ZM41.1375 33.5625C40.45 33.2125 37.0375 31.5375 36.4 31.3125C35.7625 31.075 35.3 30.9625 34.8375 31.6625C34.375 32.3625 33.05 33.9125 32.6375 34.3875C32.2375 34.85 31.825 34.9125 31.1375 34.5625C27.0625 32.525 24.3875 30.925 21.7 26.3125C20.9875 25.0875 22.4125 25.175 23.7375 22.525C23.9625 22.0625 23.85 21.6625 23.675 21.3125C23.5 20.9625 22.1125 17.55 21.5375 16.1625C20.975 14.8125 20.4 15 19.975 14.975C19.575 14.95 19.1125 14.95 18.65 14.95C18.1875 14.95 17.4375 15.125 16.8 15.8125C16.1625 16.5125 14.375 18.1875 14.375 21.6C14.375 25.0125 16.8625 28.3125 17.2 28.775C17.55 29.2375 22.0875 36.2375 29.05 39.25C33.45 41.15 35.175 41.3125 37.375 40.9875C38.7125 40.7875 41.475 39.3125 42.05 37.6875C42.625 36.0625 42.625 34.675 42.45 34.3875C42.2875 34.075 41.825 33.9 41.1375 33.5625Z" fill="#C6C6C6"/>
</svg>
